<?xml version="1.0"?>
<svg version="1.1" xmlns="http://www.w3.org/2000/svg" width="400px" height="167px" style=""><path fill="#5b41ff" d="M82.966,77.003c0,1.168-0.511,1.533-1.533,1.533l-4.161,0l0,38.252l3.942,0c1.022,0,1.533,0.657,1.533,1.533l0,3.139c0,0.876-0.365,1.46-1.314,1.46l-17.374,0c-0.949,0-1.46-0.584-1.46-1.387l0-3.285c0-1.022,0.438-1.46,1.46-1.46l3.869,0l0-38.252l-4.234,0c-1.022,0-1.46-0.511-1.46-1.46l0-3.212c0-0.803,0.438-1.46,1.314-1.46l17.885,0c1.022,0,1.533,0.657,1.533,1.387l0,3.212z M150.2355,120.949c0.073,1.241-0.292,1.971-1.679,1.971l-5.913,0c-1.533,0-1.825-0.73-1.898-2.409l-1.022-29.638l-0.146,0l-12.41,30.733c-0.438,1.168-1.168,1.314-1.971,1.314l-2.555,0c-1.095,0-1.752-0.219-2.263-1.387l-13.797-30.66l-0.146,0l-0.657,30.222c0,1.606-0.657,1.825-1.971,1.825l-4.964,0c-1.387,0-1.971-0.511-1.898-1.898l1.825-46.647c0.073-1.533,0.584-1.971,1.752-1.971l4.307,0c1.46,0,1.971,0.511,2.482,1.606l16.863,36.062l0.146,0l15.403-36.062c0.438-1.095,1.022-1.606,2.336-1.606l4.307,0c1.168,0,1.606,0.438,1.679,1.606z M206.117,121.752c0,0.73-0.365,1.168-1.314,1.168l-6.497,0c-1.533,0-2.044-0.584-2.482-1.752l-3.796-10.731l-18.469,0l-3.796,10.95c-0.292,0.949-0.803,1.533-1.971,1.533l-6.497,0c-0.73,0-1.022-0.365-1.022-0.949c0-0.219,0-0.511,0.146-0.803l17.812-47.304c0.365-0.876,0.876-1.46,1.971-1.46l5.84,0c1.095,0,1.752,0.511,2.044,1.314l17.885,47.085c0.146,0.365,0.146,0.657,0.146,0.949z M189.546,103.356l-5.183-15.403c-0.657-2.044-1.095-3.577-1.46-4.745l-0.146,0c-0.365,1.241-0.803,2.774-1.533,4.818l-5.183,15.33l13.505,0z M256.0855,117.664c0,1.46-0.365,2.044-1.752,2.774c-4.015,2.044-10.804,3.358-16.352,3.358c-15.184,0-23.798-10.512-23.798-25.988c0-15.257,9.855-26.353,24.747-26.353c4.672,0,8.979,0.803,13.359,2.774c0.803,0.365,1.022,0.803,1.022,1.314c0,0.292-0.146,0.584-0.219,0.876l-1.679,4.38c-0.292,0.73-0.584,1.022-1.095,1.022c-0.292,0-0.657-0.146-1.022-0.292c-2.409-1.022-6.57-2.117-9.928-2.117c-3.942,0-7.738,1.46-10.293,4.161c-3.066,3.212-4.818,7.957-4.818,13.943c0,11.315,5.329,18.396,14.089,18.396c2.993,0,6.278-0.438,8.249-1.241l0-13.943l-6.497,0c-1.022,0-1.606-0.365-1.606-1.606l0-4.453c0-1.168,0.584-1.46,1.679-1.46l14.162,0c1.241,0,1.752,0.365,1.752,1.679l0,22.776z M289.921,77.003c0,1.168-0.511,1.533-1.533,1.533l-4.161,0l0,38.252l3.942,0c1.022,0,1.533,0.657,1.533,1.533l0,3.139c0,0.876-0.365,1.46-1.314,1.46l-17.374,0c-0.949,0-1.46-0.584-1.46-1.387l0-3.285c0-1.022,0.438-1.46,1.46-1.46l3.869,0l0-38.252l-4.234,0c-1.022,0-1.46-0.511-1.46-1.46l0-3.212c0-0.803,0.438-1.46,1.314-1.46l17.885,0c1.022,0,1.533,0.657,1.533,1.387l0,3.212z M340.4735,119.343c0,0.657-0.292,1.095-1.168,1.46c-4.818,1.971-9.198,2.993-14.527,2.993c-15.403,0-22.922-10.877-22.922-25.915c0-14.965,8.979-26.426,23.652-26.426c5.037,0,9.563,1.022,13.724,3.066c0.876,0.438,1.168,0.803,1.168,1.241c0,0.292-0.073,0.584-0.219,0.949l-1.679,4.599c-0.219,0.657-0.584,0.949-1.022,0.949c-0.219,0-0.511-0.146-0.803-0.292c-3.65-1.898-6.935-2.628-10.585-2.628c-10.147,0-14.089,9.344-14.089,18.177c0,11.242,5.256,18.396,14.235,18.396c3.504,0,7.081-0.803,10.512-2.336c0.365-0.146,0.657-0.292,0.876-0.292c0.511,0,0.876,0.365,1.168,1.095l1.46,3.942c0.146,0.365,0.219,0.73,0.219,1.022z"/><path fill="#" d=""/></svg>
